<svg width="17" height="17" viewBox="0 0 17 17" fill="none" xmlns="http://www.w3.org/2000/svg">
<g clipPath="url(#clip0_371_5580)">
<path d="M16.8484 13.8069L11.8384 1.30052C11.3964 0.21748 10.1554 -0.306687 9.06808 0.135313L8.41287 0.403063C8.2365 0.475313 8.07854 0.575896 7.93121 0.687813C7.54304 0.267063 6.99196 -0.000687138 6.37571 -0.000687138H2.125C0.953417 2.11952e-05 0 0.953438 0 2.12502V14.875C0 16.0466 0.953417 17 2.125 17H6.375C7.54658 17 8.5 16.0466 8.5 14.875V6.30065L12.257 15.6804C12.6997 16.7734 13.969 17.2812 15.0259 16.8428L15.6818 16.575C16.7478 16.1684 17.301 14.8509 16.8484 13.8076V13.8069ZM9.61492 5.27427L11.5827 4.47244L14.5371 11.8476L12.5694 12.6494L9.61492 5.27427ZM8.94767 1.7149L9.60287 1.44715C9.95421 1.30123 10.3799 1.4691 10.5251 1.83177L11.0564 3.15706L9.08933 3.9589L8.56021 2.63715C8.41287 2.2759 8.58712 1.86152 8.94908 1.71419L8.94767 1.7149ZM1.41667 4.95835H3.54167V12.0417H1.41667V4.95835ZM4.95833 4.95835H7.08333V12.0417H4.95833V4.95835ZM7.08333 2.12502V3.54169H4.95833V1.41669H6.375C6.76529 1.41669 7.08333 1.73402 7.08333 2.12502ZM2.125 1.41669H3.54167V3.54169H1.41667V2.12502C1.41667 1.73402 1.73471 1.41669 2.125 1.41669ZM1.41667 14.875V13.4584H3.54167V15.5834H2.125C1.73471 15.5834 1.41667 15.266 1.41667 14.875ZM6.375 15.5834H4.95833V13.4584H7.08333V14.875C7.08333 15.266 6.76529 15.5834 6.375 15.5834ZM15.533 14.8814C15.4594 15.0564 15.3227 15.1916 15.1477 15.2632L14.4918 15.5309C14.1298 15.6769 13.7162 15.5047 13.571 15.1484L13.0971 13.9648L15.0648 13.163L15.5359 14.3395C15.6081 14.5145 15.6074 14.7079 15.5337 14.8821L15.533 14.8814Z" fill="white" fill-opacity="0.7"/>
</g>
<defs>
<clipPath id="clip0_371_5580">
<rect width="17" height="17" fill="white"/>
</clipPath>
</defs>
</svg>
