<svg width="28" height="28" viewBox="0 0 28 28" fill="none" xmlns="http://www.w3.org/2000/svg">
<path d="M9.33366 18.6666H7.00033C6.38149 18.6666 5.78799 18.4208 5.35041 17.9832C4.91282 17.5456 4.66699 16.9521 4.66699 16.3333V6.99996C4.66699 6.38112 4.91282 5.78763 5.35041 5.35004C5.78799 4.91246 6.38149 4.66663 7.00033 4.66663H16.3337C16.9525 4.66663 17.546 4.91246 17.9836 5.35004C18.4212 5.78763 18.667 6.38112 18.667 6.99996V9.33329M11.667 23.3333H21.0003C21.6192 23.3333 22.2127 23.0875 22.6502 22.6499C23.0878 22.2123 23.3337 21.6188 23.3337 21V11.6666C23.3337 11.0478 23.0878 10.4543 22.6502 10.0167C22.2127 9.57913 21.6192 9.33329 21.0003 9.33329H11.667C11.0482 9.33329 10.4547 9.57913 10.0171 10.0167C9.57949 10.4543 9.33366 11.0478 9.33366 11.6666V21C9.33366 21.6188 9.57949 22.2123 10.0171 22.6499C10.4547 23.0875 11.0482 23.3333 11.667 23.3333Z" stroke="white" stroke-opacity="0.7" stroke-width="1.5" stroke-linecap="round" stroke-linejoin="round"/>
</svg>
