<svg width="11" height="6" viewBox="0 0 11 6" fill="none" xmlns="http://www.w3.org/2000/svg">
<path d="M4.73505 5.84747C4.76989 5.88239 4.81127 5.9101 4.85683 5.929C4.90238 5.94791 4.95122 5.95764 5.00055 5.95764C5.04988 5.95764 5.09872 5.94791 5.14428 5.929C5.18983 5.9101 5.23122 5.88239 5.26605 5.84747L9.89105 1.25947C9.92597 1.22463 9.95368 1.18325 9.97258 1.13769C9.99149 1.09213 10.0012 1.04329 10.0012 0.993968C10.0012 0.944643 9.99149 0.895802 9.97258 0.850243C9.95368 0.804684 9.92597 0.763303 9.89105 0.728468L9.27205 0.109468C9.23722 0.074546 9.19583 0.0468389 9.15028 0.027934C9.10472 0.0090292 9.05588 -0.000701904 9.00655 -0.000701904C8.95722 -0.000701904 8.90838 0.0090292 8.86283 0.027934C8.81727 0.0468389 8.77588 0.074546 8.74105 0.109468L5.00105 3.81247L1.26005 0.109468C1.22522 0.074546 1.18383 0.0468389 1.13828 0.027934C1.09272 0.0090292 1.04388 -0.000701904 0.99455 -0.000701904C0.945224 -0.000701904 0.896383 0.0090292 0.850824 0.027934C0.805265 0.0468389 0.763884 0.074546 0.72905 0.109468L0.11005 0.728468C0.0751276 0.763303 0.0474205 0.804684 0.0285158 0.850243C0.00961113 0.895802 -0.000120163 0.944643 -0.000120163 0.993968C-0.000120163 1.04329 0.00961113 1.09213 0.0285158 1.13769C0.0474205 1.18325 0.0751276 1.22463 0.11005 1.25947L4.73505 5.84747Z" fill="#404040" fill-opacity="0.7"/>
</svg>
