<svg width="24" height="24" viewBox="0 0 24 24" fill="none" xmlns="http://www.w3.org/2000/svg">
<path d="M15 12C15 12.7956 14.6839 13.5587 14.1213 14.1213C13.5587 14.6839 12.7956 15 12 15C11.2044 15 10.4413 14.6839 9.87868 14.1213C9.31607 13.5587 9 12.7956 9 12C9 11.2044 9.31607 10.4413 9.87868 9.87868C10.4413 9.31607 11.2044 9 12 9C12.7956 9 13.5587 9.31607 14.1213 9.87868C14.6839 10.4413 15 11.2044 15 12V12Z" stroke="#fff" strokeWidth="2" strokeLinecap="round" strokeLinejoin="round"/>
<path d="M12.0011 4V5M17.6611 6.344L16.8331 7.172M20.0061 12.004H19.0061M17.6611 17.664L16.8331 16.836M12.0011 20.01V19M6.34109 17.664L7.17609 16.828M3.99609 12.004H5.00609M6.00109 6L6.83609 6.836" stroke="#fff" strokeWidth="2" strokeLinecap="round" strokeLinejoin="round"/>
</svg>
