<svg width="24" height="24" viewBox="0 0 24 24" fill="none" xmlns="http://www.w3.org/2000/svg">
<path d="M17.8333 2H6.16668C3.86664 2.00277 2.00277 3.86664 2 6.16668V17.8334C2.00277 20.1334 3.86664 21.9973 6.16668 22H17.8334C20.1334 21.9973 21.9973 20.1334 22 17.8333V6.16668C21.9973 3.86664 20.1334 2.00277 17.8333 2ZM18.6667 8.7325L10.955 16.4442C10.3043 17.0952 9.24898 17.0954 8.59797 16.4446C8.59781 16.4445 8.59766 16.4443 8.5975 16.4442L5.33332 13.1809C5.00723 12.8548 5.00723 12.3261 5.33332 12C5.65941 11.674 6.18809 11.6739 6.51414 12L9.77746 15.2634L17.49 7.55168C17.8161 7.22676 18.3438 7.22769 18.6687 7.55375C18.9937 7.87984 18.9927 8.40758 18.6667 8.7325Z" fill="#2b9e76"/>
</svg>
